<svg width="14" height="8" viewBox="0 0 14 8" fill="none" xmlns="http://www.w3.org/2000/svg">
    <path d="M6.75192 7.33405C6.52801 7.33448 6.311 7.2565 6.13859 7.11363L0.388589 2.32196C0.192881 2.1593 0.069808 1.92555 0.0464441 1.67214C0.0230802 1.41873 0.10134 1.16642 0.264006 0.970711C0.426672 0.775004 0.66042 0.651931 0.913829 0.628567C1.16724 0.605203 1.41955 0.683462 1.61526 0.846128L6.75192 5.13946L11.8886 0.999462C11.9866 0.919857 12.0994 0.86041 12.2205 0.824538C12.3416 0.788666 12.4685 0.777076 12.5941 0.790434C12.7197 0.803793 12.8414 0.841836 12.9522 0.902377C13.063 0.962919 13.1608 1.04477 13.2398 1.14321C13.3276 1.24175 13.3941 1.35735 13.4351 1.48277C13.4761 1.60819 13.4908 1.74073 13.4782 1.87208C13.4656 2.00343 13.426 2.13077 13.3619 2.24611C13.2978 2.36145 13.2106 2.46231 13.1057 2.54238L7.35567 7.17113C7.1783 7.29141 6.96573 7.34878 6.75192 7.33405Z" fill="#801E60"/>
</svg>
