<svg width="14" height="8" viewBox="0 0 14 8" fill="none" xmlns="http://www.w3.org/2000/svg">
    <path d="M1.34372 3.89061C1.52082 4.01558 2.05466 4.38674 2.94527 5.00391C3.8359 5.62107 4.51819 6.09627 4.99216 6.42953C5.04423 6.46606 5.15486 6.54547 5.32411 6.66787C5.49338 6.79035 5.63403 6.88932 5.74595 6.96482C5.85795 7.04029 5.99334 7.12495 6.15227 7.21867C6.31114 7.31231 6.46091 7.38275 6.60153 7.42937C6.74218 7.47638 6.87238 7.49967 6.99215 7.49967H7H7.00788C7.12765 7.49967 7.2579 7.47636 7.39855 7.42937C7.53912 7.38275 7.68902 7.31223 7.84776 7.21867C8.00658 7.12484 8.14197 7.04026 8.25397 6.96482C8.36597 6.88932 8.50651 6.79035 8.67584 6.66787C8.84505 6.54536 8.95582 6.46606 9.0079 6.42953C9.48698 6.09627 10.7058 5.24988 12.6641 3.89045C13.0443 3.62494 13.3619 3.30456 13.6171 2.92954C13.8725 2.55469 14 2.16144 14 1.75003C14 1.40623 13.8762 1.11194 13.6288 0.867167C13.3814 0.622343 13.0884 0.5 12.75 0.5H1.24995C0.848933 0.5 0.540324 0.635396 0.324178 0.906187C0.108059 1.17703 0 1.51558 0 1.92179C0 2.24991 0.143277 2.60548 0.429693 2.98827C0.716082 3.37109 1.02086 3.6719 1.34372 3.89061Z" fill="#FFFFFC"/>
    <path d="M13.2187 0.726535C11.5105 1.88268 10.2135 2.7812 9.32816 3.42189C9.03129 3.64055 8.79046 3.81125 8.60551 3.93357C8.42056 4.05596 8.17459 4.18096 7.86724 4.3085C7.56 4.43624 7.27366 4.49991 7.00799 4.49991H7.00003H6.99217C6.72655 4.49991 6.44005 4.43624 6.13281 4.3085C5.82557 4.18096 5.57944 4.05596 5.39454 3.93357C5.2097 3.81125 4.96879 3.64055 4.67195 3.42189C3.96878 2.9063 2.67453 2.00773 0.789143 0.726535C0.492191 0.52875 0.229171 0.302042 0 0.046875V6.24982C0 6.59379 0.122343 6.88792 0.367167 7.13272C0.611935 7.37759 0.906259 7.49999 1.25003 7.49999H12.7501C13.0938 7.49999 13.3881 7.37759 13.6329 7.13272C13.8777 6.88784 14 6.59381 14 6.24982V0.046875C13.776 0.296761 13.5157 0.523469 13.2187 0.726535Z" fill="#FFFFFC"/>
</svg>