<?xml version="1.0" encoding="UTF-8"?>
<svg id="Warstwa_1" data-name="Warstwa 1" xmlns="http://www.w3.org/2000/svg" viewBox="0 0 848.1 291.18">
  <defs>
    <style>
      .cls-1 {
        fill: #fffffc;
      }
    </style>
  </defs>
  <path class="cls-1" d="m67.3,265.53c-2.24,0-4.39.64-6.31,1.77s-3.38,2.71-5.1,4.06c-3.13,2.45-6.82,4.15-10.72,4.93-4.32.87-8.84.58-13.03-.78-2.86-.93-5.46-2.47-7.85-4.28s-4.43-4.09-7.42-5.07c-4.45-1.45-9.53-.41-13.06,3.12-5.41,5.41-4.61,14.85,1.49,19.41,3.17,2.37,7.39,3.03,11.17,1.94,2.36-.68,4.29-2.22,6.13-3.79s3.71-3.01,5.86-4.16c3.54-1.9,7.74-2.79,11.74-2.78,4.03.02,8.05,1.01,11.64,2.86,1.81.93,3.52,2.08,5.06,3.42,3,2.62,5.81,4.85,9.96,4.99,3.53.12,7.01-1.25,9.51-3.75,2.5-2.5,3.76-5.79,3.76-9.07,0-3.28-1.25-6.57-3.76-9.07s-5.79-3.76-9.07-3.76Z"/>
  <path class="cls-1" d="m119.3,240.92l11.52,4.84c12.19,5.18,18.7,12.69,18.7,23.21,0,13.19-10.52,22.21-25.55,22.21s-26.55-9.85-28.55-22.71l3.01-1c1.84,11.69,12.02,20.54,25.55,20.54s22.21-7.51,22.21-19.04c0-9.02-5.68-15.53-16.87-20.37l-11.86-5.01c-11.52-4.84-17.53-11.36-17.53-21.71,0-11.69,9.68-21.04,23.55-21.04s23.21,8.52,25.88,20.21l-2.84.83c-2.34-10.02-11.19-17.87-23.21-17.87s-20.04,8.02-20.04,17.87c0,8.85,5.68,14.69,16.03,19.04Z"/>
  <path class="cls-1" d="m174.57,209.36h-11.86v-3.17h11.86v-23.55h3.34v23.55h32.23v3.17h-32.23v78.65h29.72v3.17h-33.06v-81.82Z"/>
  <path class="cls-1" d="m226.84,291.18v-85h3.34v81.82h60.12v-81.82h3.34v85h-66.79Z"/>
  <path class="cls-1" d="m361.26,200.84c19.04,0,36.57,11.69,40.91,31.39h.33c-.33-3.51-.5-6.85-.5-11.02v-57.95h3.34v125.24h-3.17v-18.2c0-4.01.17-7.18.5-10.69h-.33c-4.51,19.87-21.88,31.56-41.08,31.56-25.22,0-44.25-19.7-44.25-45.09s19.04-45.25,44.25-45.25Zm40.91,45.25c0-23.88-17.03-42.08-40.75-42.08s-40.91,18.2-40.91,42.08,17.53,41.91,40.91,41.91,40.75-18.2,40.75-41.91Z"/>
  <rect class="cls-1" x="436.08" y="206.19" width="3.34" height="85"/>
  <rect class="cls-1" x="436.08" y="179.97" width="3.34" height="14.75"/>
  <path class="cls-1" d="m462.79,246.1c0-25.55,19.2-45.25,44.25-45.25s44.25,19.7,44.25,45.25-19.2,45.09-44.25,45.09-44.25-19.7-44.25-45.09Zm85.16,0c0-23.88-17.7-42.08-40.91-42.08s-40.91,18.2-40.91,42.08,17.7,41.91,40.91,41.91,40.91-18.2,40.91-41.91Z"/>
  <path class="cls-1" d="m682.31,138.45c3.27,0,6.56.28,9.72-.75,6.67-2.17,12.35-6.9,15.12-13.4.32-.76.6-1.53.84-2.32.67-2.21,1.01-4.51,1.01-6.81,0-5.45-1.85-10.46-4.98-14.44-.65-.69-1.28-1.41-1.91-2.17-6.58-7.93-10.53-18.13-10.53-29.25s3.96-21.33,10.55-29.28c.02-.02.05-.05.06-.07.58-.68,1.17-1.35,1.77-2,3.39-4.29,5.31-9.8,5.01-15.76-.61-11.79-10.16-21.45-21.95-22.17-13.62-.83-24.91,9.98-24.91,23.41,0,5.48,1.88,10.52,5.04,14.51.61.65,1.19,1.32,1.77,2,.01.02.03.05.06.07,6.59,7.94,10.56,18.14,10.56,29.28,0,8.32-2.32,16.96-6.94,24.06-4.14,6.36-12.64,15.42-20.84,15.42-15.55,0-15.75-15.12-28.15-19.32,16.59-7.14,24.99-19.95,24.99-39.27,0-34.65-19.95-50.2-59.44-50.2h-51.87v138.61h39.27v-42.21h2.31c17.73,0,18.77,19.07,30.42,32.06,5.79,6.45,14.16,9.99,22.82,9.99h50.19Zm-98.19-68.51h-7.56V30.03h10.08c14.7,0,23.73,7.14,23.73,20.58,0,12.39-10.08,19.32-26.25,19.32Z"/>
  <path class="cls-1" d="m801.48,113.2h-42.63l-7.14,25.41h-40.11L758.21,0h43.68l46.21,138.61h-39.69l-6.93-25.41Zm-7.77-28.14l-9.24-33.39c-1.26-4.62-3.15-11.97-3.78-16.8h-.84c-.63,4.83-2.73,12.18-3.99,17.01l-9.24,33.18h27.09Z"/>
  <path class="cls-1" d="m258.94,113.2h-42.63l-7.14,25.41h-40.11L215.68,0h43.68l46.21,138.61h-39.69l-6.93-25.41Zm-7.77-28.14l-9.24-33.39c-1.26-4.62-3.15-11.97-3.78-16.8h-.84c-.63,4.83-2.73,12.18-3.99,17.01l-9.24,33.18h27.09Z"/>
  <path class="cls-1" d="m333.07,31.92h-40.11V0h119.5v31.92h-40.11v106.69h-39.27V31.92Z"/>
  <path class="cls-1" d="m465.59,31.92v22.68h48.73v29.61h-48.73v22.47h57.97v31.92h-97.24V0h97.24v31.92h-57.97Z"/>
  <path class="cls-1" d="m117.4.01l-25.62,56.91c-5.25,11.76-10.92,26.25-11.34,29.19h-.84c-.63-2.94-6.09-17.22-11.55-28.98L41.58.01H0v138.6h38.22v-62.16c0-6.3-.63-14.07-1.05-15.33l1.05-.42c.21,1.05,2.1,6.93,3.57,10.5l27.21,67.41h20.75l26.8-67.41c1.47-3.57,3.36-9.45,3.57-10.5l1.05.42c-.42,1.26-1.05,8.61-1.05,15.33v62.16h38.64V.01h-41.37Z"/>
</svg>