<svg width="14" height="14" viewBox="0 0 14 14" fill="none" xmlns="http://www.w3.org/2000/svg">
    <path d="M13.9933 11.0464C14.023 11.2737 13.9537 11.4713 13.7858 11.6392L11.8147 13.5955C11.7257 13.6943 11.6097 13.7784 11.4664 13.8474C11.3231 13.9166 11.1824 13.9611 11.0441 13.9808C11.0342 13.9808 11.0045 13.9834 10.9551 13.9883C10.9057 13.9932 10.8415 13.9958 10.7625 13.9958C10.5747 13.9958 10.2708 13.9636 9.8509 13.8994C9.43098 13.8351 8.91721 13.677 8.30961 13.4251C7.70186 13.1732 7.01271 12.7952 6.24206 12.2913C5.4714 11.7875 4.65129 11.0958 3.7818 10.2164C3.09016 9.53466 2.51709 8.88255 2.06259 8.2601C1.60808 7.6376 1.2425 7.06206 0.965847 6.53345C0.689168 6.00484 0.481676 5.52564 0.343349 5.09583C0.205021 4.66603 0.111156 4.29551 0.0617534 3.98427C0.0123507 3.67303 -0.00741041 3.42849 0.00247014 3.25064C0.0123507 3.07279 0.0172909 2.97399 0.0172909 2.95422C0.037052 2.8159 0.0815145 2.6751 0.150678 2.53183C0.219842 2.38856 0.303827 2.27247 0.402632 2.18354L2.3738 0.212374C2.51213 0.0740466 2.67022 0.00488281 2.84807 0.00488281C2.97651 0.00488281 3.09014 0.0419348 3.18894 0.116039C3.28775 0.190143 3.37173 0.281538 3.4409 0.390224L5.02673 3.39885C5.11565 3.55694 5.14035 3.72985 5.10083 3.91758C5.06131 4.10531 4.97732 4.2634 4.84888 4.39184L4.12266 5.11806C4.10289 5.13782 4.0856 5.16994 4.07078 5.2144C4.05596 5.25886 4.04855 5.29591 4.04855 5.32555C4.08807 5.53305 4.177 5.77018 4.31533 6.03695C4.43389 6.27409 4.61668 6.56309 4.8637 6.90397C5.11071 7.24485 5.46147 7.63758 5.91597 8.0822C6.3606 8.53675 6.75582 8.88994 7.10164 9.14194C7.44739 9.39379 7.73649 9.57913 7.96868 9.69769C8.20087 9.81626 8.37872 9.88789 8.50221 9.91252L8.68742 9.9496C8.70718 9.9496 8.73936 9.94217 8.78378 9.92737C8.82824 9.91252 8.86035 9.89526 8.88014 9.87547L9.7249 9.01586C9.90285 8.8578 10.1102 8.77876 10.3474 8.77876C10.5154 8.77876 10.6487 8.80837 10.7475 8.86768H10.7623L13.6227 10.5573C13.8303 10.6858 13.9538 10.8488 13.9933 11.0464Z" fill="#FFFFFC"/>
</svg>
