<svg width="130" height="132" viewBox="0 0 130 132" fill="none" xmlns="http://www.w3.org/2000/svg">
    <path d="M121.399 1.00342C120.909 1.00342 120.746 1.3302 120.419 1.49359L59.1475 44.9556C58.4939 45.4457 57.5136 46.7528 57.0234 47.5698L54.8993 51.6546C66.6635 55.4126 75.6499 64.3991 79.4079 76.1632L83.4927 74.0391C84.3097 73.5489 85.4534 72.732 86.107 71.915L129.569 10.6435C130.059 9.82652 130.222 9.17296 129.569 8.5194L122.38 1.3302C122.053 1.00342 121.726 0.840027 121.399 0.840027V1.00342ZM43.2986 65.8696C31.2076 65.8696 21.8944 75.8364 21.8944 87.7639C21.8944 103.94 12.9079 117.991 0 125.507C6.37224 129.102 14.0516 131.063 21.8944 131.063C45.9128 131.063 65.3563 111.782 65.3563 87.6006C65.3563 75.5096 55.3895 65.7062 43.462 65.7062L43.2986 65.8696Z" fill="#FFFFFC"/>
</svg>

