<svg width="130" height="132" viewBox="0 0 130 132" fill="none" xmlns="http://www.w3.org/2000/svg">
    <path d="M121.399 1.00336C120.909 1.00336 120.746 1.33014 120.419 1.49353L59.1475 44.9555C58.4939 45.4457 57.5136 46.7528 57.0234 47.5697L54.8993 51.6545C66.6635 55.4125 75.6499 64.399 79.4079 76.1631L83.4927 74.0391C84.3097 73.5489 85.4534 72.7319 86.107 71.915L129.569 10.6434C130.059 9.82646 130.222 9.1729 129.569 8.51933L122.38 1.33014C122.053 1.00336 121.726 0.839966 121.399 0.839966V1.00336ZM43.2986 65.8695C31.2076 65.8695 21.8944 75.8364 21.8944 87.7639C21.8944 103.94 12.9079 117.991 0 125.507C6.37224 129.102 14.0516 131.062 21.8944 131.062C45.9128 131.062 65.3563 111.782 65.3563 87.6005C65.3563 75.5096 55.3895 65.7061 43.462 65.7061L43.2986 65.8695Z" fill="#1A181B"/>
</svg>
