<svg width="110" height="94" viewBox="0 0 110 94" fill="none" xmlns="http://www.w3.org/2000/svg">
    <path d="M55.3338 93.178C54.6173 93.1821 53.907 93.0448 53.2437 92.7739C52.5803 92.5029 51.977 92.1037 51.4683 91.5991L9.16495 49.2413C3.85858 43.8795 0.882111 36.6405 0.882111 29.0969C0.882111 21.5532 3.85858 14.3142 9.16495 8.95243C14.5128 3.61966 21.757 0.625 29.3094 0.625C36.8618 0.625 44.106 3.61966 49.4538 8.95243L55.3338 14.8324L61.2138 8.95243C66.5617 3.61966 73.8059 0.625 81.3583 0.625C88.9107 0.625 96.1549 3.61966 101.503 8.95243C106.809 14.3142 109.786 21.5532 109.786 29.0969C109.786 36.6405 106.809 43.8795 101.503 49.2413L59.1994 91.5991C58.6907 92.1037 58.0873 92.5029 57.424 92.7739C56.7607 93.0448 56.0504 93.1821 55.3338 93.178Z" fill="#FFFFFC"/>
</svg>
