<svg width="77" height="99" viewBox="0 0 77 99" fill="none" xmlns="http://www.w3.org/2000/svg">
    <path d="M38.3331 43.7333C42.6403 43.7333 46.8509 42.4561 50.4322 40.0631C54.0135 37.6701 56.8048 34.2689 58.4531 30.2895C60.1015 26.3101 60.5327 21.9314 59.6924 17.7069C58.8521 13.4824 56.778 9.60198 53.7323 6.55631C50.6866 3.51063 46.8062 1.4365 42.5817 0.596198C38.3573 -0.244102 33.9785 0.18717 29.9991 1.83548C26.0197 3.48379 22.6185 6.2751 20.2255 9.85644C17.8326 13.4378 16.5553 17.6483 16.5553 21.9555C16.5553 27.7313 18.8498 33.2706 22.9339 37.3547C27.018 41.4389 32.5573 43.7333 38.3331 43.7333Z" fill="#1A181B"/>
    <path d="M70.9998 98.1776C72.4437 98.1776 73.8285 97.604 74.8496 96.583C75.8706 95.562 76.4442 94.1771 76.4442 92.7332C76.4442 82.6255 72.4289 72.9318 65.2817 65.7846C58.1345 58.6373 48.4408 54.6221 38.3331 54.6221C28.2254 54.6221 18.5317 58.6373 11.3845 65.7846C4.23727 72.9318 0.222 82.6255 0.222 92.7332C0.222 94.1771 0.795611 95.562 1.81664 96.583C2.83767 97.604 4.22249 98.1776 5.66644 98.1776H70.9998Z" fill="#1A181B"/>
</svg>
