<svg width="109" height="105" viewBox="0 0 109 105" fill="none" xmlns="http://www.w3.org/2000/svg">
    <path d="M84.6042 104.306C83.7335 104.31 82.8747 104.105 82.0998 103.708L54.3331 89.1709L26.5665 103.708C25.6648 104.182 24.6483 104.393 23.6323 104.318C22.6164 104.244 21.6418 103.885 20.8195 103.284C19.9971 102.683 19.3599 101.863 18.9803 100.918C18.6006 99.9723 18.4938 98.9394 18.672 97.9364L24.1165 67.2842L1.68535 45.5064C0.98551 44.808 0.489052 43.9323 0.249258 42.9731C0.00946388 42.0139 0.0353852 41.0075 0.32424 40.062C0.6398 39.0944 1.22027 38.2346 1.99977 37.5802C2.77927 36.9258 3.7266 36.503 4.73424 36.3598L35.7676 31.8409L49.4331 3.91087C49.879 2.99037 50.575 2.21406 51.4416 1.67088C52.3083 1.12769 53.3104 0.8396 54.3331 0.8396C55.3559 0.8396 56.358 1.12769 57.2246 1.67088C58.0912 2.21406 58.7873 2.99037 59.2331 3.91087L73.062 31.7864L104.095 36.3053C105.103 36.4485 106.05 36.8713 106.83 37.5257C107.609 38.1801 108.19 39.0399 108.505 40.0075C108.794 40.9531 108.82 41.9595 108.58 42.9186C108.341 43.8778 107.844 44.7536 107.144 45.452L84.7131 67.2298L90.1576 97.882C90.3519 98.9027 90.2502 99.9577 89.8643 100.922C89.4784 101.887 88.8245 102.721 87.9798 103.326C86.9939 104.017 85.8068 104.362 84.6042 104.306Z" fill="#FFFFFC"/>
</svg>
