<svg width="24" height="26" viewBox="0 0 24 26" fill="none" xmlns="http://www.w3.org/2000/svg">
    <path d="M10.4168 1.91634L10.4168 20.6947L3.51349 14.9472C3.35339 14.8141 3.16864 14.7139 2.9698 14.6522C2.77096 14.5905 2.56192 14.5686 2.35461 14.5877C1.93594 14.6263 1.54974 14.8297 1.28099 15.153C1.01224 15.4763 0.882942 15.8932 0.921542 16.3119C0.960143 16.7306 1.16348 17.1168 1.48683 17.3855L10.9868 25.3022C11.0624 25.3554 11.1418 25.4031 11.2243 25.4447C11.3035 25.4447 11.351 25.5238 11.4302 25.5555C11.6117 25.6273 11.805 25.6649 12.0002 25.6663C12.1954 25.6649 12.3886 25.6273 12.5702 25.5555C12.6493 25.5555 12.6968 25.4763 12.776 25.4447C12.8585 25.4031 12.9379 25.3554 13.0135 25.3022L22.5135 17.3855C22.6922 17.2366 22.836 17.0502 22.9345 16.8395C23.033 16.6288 23.0839 16.399 23.0835 16.1663C23.0842 15.7964 22.9554 15.4379 22.7193 15.153C22.5864 14.9927 22.4232 14.8602 22.2389 14.763C22.0547 14.6659 21.8532 14.606 21.6458 14.5869C21.4384 14.5678 21.2293 14.5898 21.0304 14.6516C20.8315 14.7134 20.6468 14.8139 20.4868 14.9472L13.5835 20.6947L13.5835 1.91634C13.5835 1.49641 13.4167 1.09369 13.1197 0.796755C12.8228 0.499823 12.4201 0.333007 12.0002 0.333007C11.5802 0.333007 11.1775 0.499823 10.8806 0.796755C10.5836 1.09369 10.4168 1.49641 10.4168 1.91634Z" fill="#271032"/>
</svg>
