<svg width="107" height="99" viewBox="0 0 107 99" fill="none" xmlns="http://www.w3.org/2000/svg">
    <path d="M104.769 21.9555C103.828 20.3256 102.481 18.9672 100.859 18.0131C99.2366 17.0589 97.3949 16.5414 95.5132 16.5111H25.8243L22.6665 4.20664C22.3475 3.01887 21.6357 1.97412 20.647 1.24253C19.6584 0.510952 18.4512 0.13565 17.2221 0.177754H6.33318C4.88922 0.177754 3.50441 0.751363 2.48337 1.77239C1.46234 2.79343 0.888733 4.17824 0.888733 5.6222C0.888733 7.06615 1.46234 8.45097 2.48337 9.472C3.50441 10.493 4.88922 11.0666 6.33318 11.0666H13.0843L28.111 66.9266C28.43 68.1144 29.1418 69.1592 30.1304 69.8908C31.119 70.6223 32.3262 70.9976 33.5554 70.9555H82.5554C83.5608 70.9525 84.5457 70.6711 85.401 70.1425C86.2563 69.614 86.9485 68.859 87.401 67.9611L105.259 32.2455C106.033 30.6232 106.393 28.8344 106.308 27.0389C106.222 25.2434 105.693 23.497 104.769 21.9555Z" fill="#fffffc"/>
    <path d="M30.8331 98.1778C35.3434 98.1778 38.9998 94.5215 38.9998 90.0111C38.9998 85.5008 35.3434 81.8445 30.8331 81.8445C26.3228 81.8445 22.6664 85.5008 22.6664 90.0111C22.6664 94.5215 26.3228 98.1778 30.8331 98.1778Z" fill="#fffffc"/>
    <path d="M85.2775 98.1778C89.7879 98.1778 93.4442 94.5215 93.4442 90.0111C93.4442 85.5008 89.7879 81.8445 85.2775 81.8445C80.7672 81.8445 77.1109 85.5008 77.1109 90.0111C77.1109 94.5215 80.7672 98.1778 85.2775 98.1778Z" fill="#fffffc"/>
</svg>
